<svg id="Layer_5" enable-background="new 0 0 64 64" height="512" viewBox="0 0 64 64" width="512" xmlns="http://www.w3.org/2000/svg"><g><path d="m9 19h2v4h-2z"/><path d="m13 21h2v2h-2z"/><path d="m17 17h2v6h-2z"/><path d="m56 10h-4v-4h-1.032l.032-4.994-2-.012-.032 5 1 .006h-1.968v4h-4v3h12z"/><path d="m38 10h-5v-4h-1.032l.032-4.994-2-.012-.032 5 1 .006h-1.968v4h-5v3h14z"/><path d="m12.223 55.738c.229-.367.495-.703.777-1.024v-23.995l8 2v-7.719h-14v29.09c.326-.055.659-.09 1-.09 1.6 0 3.113.642 4.223 1.738zm4.777-28.738h2v2h-2zm-4 0h2v2h-2zm-4 0h2v2h-2zm0 4h2v2h-2zm0 4h2v2h-2zm0 4h2v2h-2zm0 4h2v2h-2zm0 4h2v2h-2zm0 4h2v2h-2z"/><path d="m45 23.029c-6.92.403-12.927 4.963-15.135 11.601l-.111.277 1.246.312v17.862c1.197-.692 2.569-1.081 4-1.081 2.908 0 5.523 1.556 6.929 4h.071c1.053 0 2.062.229 3 .61v-.058c-1.236-1.456-2-3.422-2-5.553h-2v-2h2v2c0-2.174.765-4.145 2-5.588zm-10 27.971h-2v-2h2zm0-4h-2v-2h2zm0-4h-2v-2h2zm0-4h-2v-2h2zm0-4h-2v-2h2zm4 16h-2v-2h2zm0-4h-2v-2h2zm0-4h-2v-2h2zm0-4h-2v-2h2zm0-4h-2v-2h2zm0-4h-2v-2h2zm4 16h-2v-2h2zm0-4h-2v-2h2zm0-4h-2v-2h2zm0-4h-2v-2h2zm0-4h-2v-2h2z"/><path d="m33 15h-4v16.515c1.013-2.043 2.375-3.854 4-5.376z"/><path d="m15 53.068c1.185-.682 2.552-1.068 4-1.068 2.196 0 4.263.902 5.75 2.44.708-.289 1.47-.44 2.25-.44.691 0 1.362.137 2 .366v-17.585l-14-3.5zm10-16.068h2v2h-2zm0 4h2v2h-2zm0 4h2v2h-2zm0 4h2v2h-2zm-4-12h2v2h-2zm0 4h2v2h-2zm0 4h2v2h-2zm0 4h2v2h-2zm-4-12h2v2h-2zm0 4h2v2h-2zm0 4h2v2h-2zm0 4h2v2h-2z"/><path d="m47 21v22.783c.911-.497 1.925-.783 3-.783h-1v-2h2v2h-1c1.487 0 2.865.537 4 1.444.875-.7 1.897-1.172 3-1.354v-28.09h-14v6.237c.981-.156 1.983-.237 3-.237zm6-4h2v2h-2zm0 4h2v2h-2zm0 4h2v2h-2zm0 4h2v2h-2zm0 4h2v2h-2zm0 4h2v2h-2zm0 4h2v2h-2zm-4-24h2v2h-2zm0 4h2v2h-2zm0 4h2v2h-2zm0 4h2v2h-2zm0 4h2v2h-2zm0 4h2v2h-2zm-4-20h2v2h-2z"/><path d="m59 56.879c-.323.079-.658.121-1 .121s-.677-.042-1-.121v4.121h-6v-4.121c-.323.079-.658.121-1 .121s-.677-.042-1-.121v4.121h-1.816c-1.038-1.79-2.966-3-5.184-3-.445 0-.878.052-1.296.144-.782-2.404-3.038-4.144-5.704-4.144-2.263 0-4.232 1.254-5.254 3.104-.717-.68-1.68-1.104-2.746-1.104s-2.029.424-2.746 1.104c-1.022-1.85-2.991-3.104-5.254-3.104-2.696 0-4.975 1.778-5.732 4.224-.401-.134-.822-.224-1.268-.224l-.515.036c-.686-1.216-1.99-2.036-3.485-2.036-2.209 0-4 1.791-4 4 0 .346.047.68.129 1h-3.129v2h62v-2h-4z"/><path d="m51 51v5.879c1.226-.3 2.278-1.15 3-2.313.722 1.163 1.774 2.013 3 2.313v-5.879h2v5.879c2.279-.558 4-2.981 4-5.879 0-3.309-2.243-6-5-6-1.636 0-3.087.953-4 2.415-.913-1.462-2.364-2.415-4-2.415-2.757 0-5 2.691-5 6 0 2.898 1.721 5.321 4 5.879v-5.879z"/></g></svg>