<svg height="512" viewBox="0 0 56 57" width="512" xmlns="http://www.w3.org/2000/svg"><g id="Page-1" fill="none" fill-rule="evenodd"><g id="017---CN-Tower" fill="rgb(0,0,0)" fill-rule="nonzero"><rect id="Rectangle-path" height="2" rx=".5" width="6" x="1" y="31"/><rect id="Rectangle-path" height="2" rx=".5" width="4" x="3" y="27"/><path id="Shape" d="m9 30.5v25c0 .2761424.22385763.5.5.5h7.166c.2543128.0018369.4694883-.1875175.5-.44.364-3.189 1.3-12.069 2.1-25.022.0087906-.1386159-.039785-.2747509-.1343393-.3764913-.0945544-.1017405-.2267731-.1601402-.3656607-.1615087h-9.266c-.27614237 0-.5.2238576-.5.5zm3 1.5h2c.5522847 0 1 .4477153 1 1s-.4477153 1-1 1h-2c-.5522847 0-1-.4477153-1-1s.4477153-1 1-1zm0 4h2c.5522847 0 1 .4477153 1 1s-.4477153 1-1 1h-2c-.5522847 0-1-.4477153-1-1s.4477153-1 1-1zm0 4h2c.5522847 0 1 .4477153 1 1s-.4477153 1-1 1h-2c-.5522847 0-1-.4477153-1-1s.4477153-1 1-1zm0 4h2c.5522847 0 1 .4477153 1 1s-.4477153 1-1 1h-2c-.5522847 0-1-.4477153-1-1s.4477153-1 1-1zm0 4h2c.5522847 0 1 .4477153 1 1s-.4477153 1-1 1h-2c-.5522847 0-1-.4477153-1-1s.4477153-1 1-1zm0 4h2c.5522847 0 1 .4477153 1 1s-.4477153 1-1 1h-2c-.5522847 0-1-.4477153-1-1s.4477153-1 1-1z"/><path id="Shape" d="m21.171 19h4.657c.2294852-.0000634.4294646-.1563359.485-.379l.25-1c.0372426-.1493206.0036477-.3074727-.0910778-.4287605-.0947256-.1212877-.2400273-.192197-.3939222-.1922395h-5.157c-.1538949.0000425-.2991966.0709518-.3939222.1922395-.0947255.1212878-.1283204.2794399-.0910778.4287605l.25 1c.0555354.2226641.2555148.3789366.485.379z"/><path id="Shape" d="m27.812 55.451c-.3-2.647-.894-8.346-1.5-16.443v-.008c-.373-4.981-.749-10.871-1.062-17.515-.0102177-.2686953-.2311106-.4811942-.5-.481h-2.5c-.2688894-.0001942-.4897823.2123047-.5.481-.823 17.453-2.083 29.693-2.564 33.97-.0138739.1408717.0326136.2810226.1279274.3856772.0953139.1046546.230521.1640043.3720726.1633228h7.628c.1419755.000232.2773555-.0599044.3723638-.1654056.0950084-.1055013.1406858-.2464186.1256362-.3875944z"/><path id="Shape" d="m6.5 56c.27614237 0 .5-.2238576.5-.5v-20c0-.2761424-.22385763-.5-.5-.5h-6c-.27614237 0-.5.2238576-.5.5v20c0 .2761424.22385763.5.5.5zm-3.5-18h1c.55228475 0 1 .4477153 1 1s-.44771525 1-1 1h-1c-.55228475 0-1-.4477153-1-1s.44771525-1 1-1zm0 4h1c.55228475 0 1 .4477153 1 1s-.44771525 1-1 1h-1c-.55228475 0-1-.4477153-1-1s.44771525-1 1-1zm0 4h1c.55228475 0 1 .4477153 1 1s-.44771525 1-1 1h-1c-.55228475 0-1-.4477153-1-1s.44771525-1 1-1zm0 4h1c.55228475 0 1 .4477153 1 1s-.44771525 1-1 1h-1c-.55228475 0-1-.4477153-1-1s.44771525-1 1-1z"/><rect id="Rectangle-path" height="2" rx=".5" width="8" x="46" y="32"/><rect id="Rectangle-path" height="2" rx=".5" width="6" x="46" y="28"/><path id="Shape" d="m24.5 6c.2761424 0 .5-.22385763.5-.5v-4c0-.82842712-.6715729-1.5-1.5-1.5s-1.5.67157288-1.5 1.5v4c0 .27614237.2238576.5.5.5z"/><path id="Shape" d="m20.687 8.379-.25 1c-.0372426.14932061-.0036477.30747269.0910778.42876047.0947256.12128777.2400273.19219702.3939222.19223953h5.157c.1538949-.00004251.2991966-.07095176.3939222-.19223953.0947255-.12128778.1283204-.27943986.0910778-.42876047l-.25-1c-.0555354-.22266408-.2555148-.3789366-.485-.379h-4.657c-.2294852.0000634-.4294646.15633592-.485.379z"/><path id="Shape" d="m18.5 12c-.8284271 0-1.5.6715729-1.5 1.5s.6715729 1.5 1.5 1.5h10c.8284271 0 1.5-.6715729 1.5-1.5s-.6715729-1.5-1.5-1.5z"/><path id="Shape" d="m41 52h-2.5c-.2761424 0-.5.2238576-.5.5v3c0 .2761424.2238576.5.5.5h5c.2761424 0 .5-.2238576.5-.5v-31.573c-.0000063-.1892216-.1068295-.3622287-.276-.447l-5-2.5c-.1549933-.0776671-.3391575-.0695041-.4866714.0215714-.1475138.0910756-.2373228.2520645-.2373286.4254286v4.073c0 .2761424.2238576.5.5.5h2.5c.5522847 0 1 .4477153 1 1s-.4477153 1-1 1h-2.5c-.2761424 0-.5.2238576-.5.5v1c0 .2761424.2238576.5.5.5h2.5c.5522847 0 1 .4477153 1 1s-.4477153 1-1 1h-2.5c-.2761424 0-.5.2238576-.5.5v1c0 .2761424.2238576.5.5.5h2.5c.5522847 0 1 .4477153 1 1s-.4477153 1-1 1h-2.5c-.2761424 0-.5.2238576-.5.5v1c0 .2761424.2238576.5.5.5h2.5c.5522847 0 1 .4477153 1 1s-.4477153 1-1 1h-2.5c-.2761424 0-.5.2238576-.5.5v1c0 .2761424.2238576.5.5.5h2.5c.5522847 0 1 .4477153 1 1s-.4477153 1-1 1h-2.5c-.2761424 0-.5.2238576-.5.5v1c0 .2761424.2238576.5.5.5h2.5c.5522847 0 1 .4477153 1 1s-.4477153 1-1 1h-2.5c-.2761424 0-.5.2238576-.5.5v1c0 .2761424.2238576.5.5.5h2.5c.5522847 0 1 .4477153 1 1s-.4477153 1-1 1z"/><path id="Shape" d="m55.5 36h-9c-.2761424 0-.5.2238576-.5.5v19c0 .2761424.2238576.5.5.5h9c.2761424 0 .5-.2238576.5-.5v-19c0-.2761424-.2238576-.5-.5-.5zm-2.5 17h-4c-.5522847 0-1-.4477153-1-1s.4477153-1 1-1h4c.5522847 0 1 .4477153 1 1s-.4477153 1-1 1zm0-4h-4c-.5522847 0-1-.4477153-1-1s.4477153-1 1-1h4c.5522847 0 1 .4477153 1 1s-.4477153 1-1 1zm0-4h-4c-.5522847 0-1-.4477153-1-1s.4477153-1 1-1h4c.5522847 0 1 .4477153 1 1s-.4477153 1-1 1zm0-4h-4c-.5522847 0-1-.4477153-1-1s.4477153-1 1-1h4c.5522847 0 1 .4477153 1 1s-.4477153 1-1 1z"/><path id="Shape" d="m33 44h2.5c.2761424 0 .5-.2238576.5-.5v-3c0-.2761424-.2238576-.5-.5-.5h-6.568c-.1403813.0012249-.273944.060716-.3687552.1642498s-.1423479.2418033-.1312448.3817502c.586 7.532 1.143 12.732 1.4 15.015.0309787.2520854.2460254.4408963.5.439h5.168c.2761424 0 .5-.2238576.5-.5v-1c0-.2761424-.2238576-.5-.5-.5h-2.5c-.5522847 0-1-.4477153-1-1s.4477153-1 1-1h2.5c.2761424 0 .5-.2238576.5-.5v-1c0-.2761424-.2238576-.5-.5-.5h-2.5c-.5522847 0-1-.4477153-1-1s.4477153-1 1-1h2.5c.2761424 0 .5-.2238576.5-.5v-1c0-.2761424-.2238576-.5-.5-.5h-2.5c-.5522847 0-1-.4477153-1-1s.4477153-1 1-1z"/><path id="Shape" d="m31.5 35h-2.935c-.1398388-.0004483-.273475.0576847-.3684831.1602934s-.1427048.2403154-.1315169.3797066c.0466667.682.094 1.3486667.142 2 .0213918.2600153.2391077.4598785.5.459h2.793c.2761424 0 .5-.2238576.5-.5v-2c-.0005515-.2757518-.2242477-.4990006-.5-.499z"/></g></g></svg>